{
  "accessors": [
    {
      "bufferView": 2,
      "componentType": 5126,
      "count": 4761,
      "max": [
        445.859375,
        480.88189697265625,
        445.625
      ],
      "min": [
        -445.859375,
        -7.549516567451064e-15,
        -445.625
      ],
      "type": "VEC3"
    },
    {
      "bufferView": 2,
      "byteOffset": 57132,
      "componentType": 5126,
      "count": 4761,
      "max": [
        0.9826169610023499,
        0.9999949336051941,
        0.9796565175056458
      ],
      "min": [
        -0.9842187762260437,
        -0.11909452825784683,
        -0.9797910451889038
      ],
      "type": "VEC3"
    },
    {
      "bufferView": 1,
      "componentType": 5126,
      "count": 4761,
      "max": [
        0.945624828338623,
        0.9459375143051147
      ],
      "min": [
        0.053906239569187164,
        0.05468761920928955
      ],
      "type": "VEC2"
    },
    {
      "bufferView": 1,
      "byteOffset": 38088,
      "componentType": 5126,
      "count": 4761,
      "max": [
        0.945624828338623,
        0.9459375143051147
      ],
      "min": [
        0.053906239569187164,
        0.05468761920928955
      ],
      "type": "VEC2"
    },
    {
      "bufferView": 1,
      "byteOffset": 76176,
      "componentType": 5126,
      "count": 4761,
      "max": [
        0.945624828338623,
        0.9459375143051147
      ],
      "min": [
        0.053906239569187164,
        0.05468761920928955
      ],
      "type": "VEC2"
    },
    {
      "bufferView": 0,
      "componentType": 5125,
      "count": 4761,
      "type": "SCALAR"
    }
  ],
  "asset": {
    "extras": {
      "author": "luhpatez (https://sketchfab.com/luhpatez)",
      "license": "CC-BY-NC-SA-4.0 (http://creativecommons.org/licenses/by-nc-sa/4.0/)",
      "source": "https://sketchfab.com/3d-models/free-volcano-stylized-low-poly-71b204bdf0a346dcb4d4f04757e3598f",
      "title": "Free Volcano Stylized Low Poly"
    },
    "generator": "Sketchfab-16.68.0",
    "version": "2.0"
  },
  "bufferViews": [
    {
      "buffer": 0,
      "byteLength": 19044,
      "name": "floatBufferViews",
      "target": 34963
    },
    {
      "buffer": 0,
      "byteLength": 114264,
      "byteOffset": 19044,
      "byteStride": 8,
      "name": "floatBufferViews",
      "target": 34962
    },
    {
      "buffer": 0,
      "byteLength": 114264,
      "byteOffset": 133308,
      "byteStride": 12,
      "name": "floatBufferViews",
      "target": 34962
    }
  ],
  "buffers": [
    {
      "byteLength": 247572,
      "uri": "scene.bin"
    }
  ],
  "extensionsUsed": [
    "KHR_materials_emissive_strength",
    "KHR_materials_specular"
  ],
  "images": [
    {
      "uri": "textures/M_Volcano_baseColor.png"
    },
    {
      "uri": "textures/M_Volcano_metallicRoughness.png"
    },
    {
      "uri": "textures/M_Volcano_emissive.png"
    }
  ],
  "materials": [
    {
      "doubleSided": true,
      "emissiveFactor": [
        1.0,
        1.0,
        1.0
      ],
      "emissiveTexture": {
        "index": 2
      },
      "extensions": {
        "KHR_materials_emissive_strength": {
          "emissiveStrength": 2.9104850605258985
        },
        "KHR_materials_specular": {
          "specularColorFactor": [
            1.0,
            1.0,
            1.0
          ],
          "specularFactor": 0.3459058160939157
        }
      },
      "name": "M_Volcano",
      "occlusionTexture": {
        "index": 1
      },
      "pbrMetallicRoughness": {
        "baseColorTexture": {
          "index": 0
        },
        "metallicFactor": 0.0,
        "metallicRoughnessTexture": {
          "index": 1
        }
      }
    }
  ],
  "meshes": [
    {
      "name": "Volcano_M_Volcano_0",
      "primitives": [
        {
          "attributes": {
            "NORMAL": 1,
            "POSITION": 0,
            "TEXCOORD_0": 2,
            "TEXCOORD_1": 3,
            "TEXCOORD_2": 4
          },
          "indices": 5,
          "material": 0,
          "mode": 4
        }
      ]
    }
  ],
  "nodes": [
    {
      "children": [
        1
      ],
      "matrix": [
        1.0,
        0.0,
        0.0,
        0.0,
        0.0,
        2.220446049250313e-16,
        -1.0,
        0.0,
        0.0,
        1.0,
        2.220446049250313e-16,
        0.0,
        0.0,
        0.0,
        0.0,
        1.0
      ],
      "name": "Sketchfab_model"
    },
    {
      "children": [
        2
      ],
      "matrix": [
        0.009999999776482582,
        0.0,
        0.0,
        0.0,
        0.0,
        0.0,
        0.009999999776482582,
        0.0,
        0.0,
        -0.009999999776482582,
        0.0,
        0.0,
        0.0,
        0.0,
        0.0,
        1.0
      ],
      "name": "209e08fc6afd40fe98e0ee6b27f4d088.fbx"
    },
    {
      "children": [
        3
      ],
      "name": "RootNode"
    },
    {
      "children": [
        4
      ],
      "matrix": [
        1.0,
        0.0,
        0.0,
        0.0,
        0.0,
        1.0,
        0.0,
        0.0,
        0.0,
        0.0,
        1.0,
        0.0,
        -0.23438617587089539,
        0.1180977076292038,
        -0.3124888241291046,
        1.0
      ],
      "name": "Volcano"
    },
    {
      "mesh": 0,
      "name": "Volcano_M_Volcano_0"
    }
  ],
  "samplers": [
    {
      "magFilter": 9729,
      "minFilter": 9987,
      "wrapS": 10497,
      "wrapT": 10497
    }
  ],
  "scene": 0,
  "scenes": [
    {
      "name": "Sketchfab_Scene",
      "nodes": [
        0
      ]
    }
  ],
  "textures": [
    {
      "sampler": 0,
      "source": 0
    },
    {
      "sampler": 0,
      "source": 1
    },
    {
      "sampler": 0,
      "source": 2
    }
  ]
}
