{
	"asset":{
		"generator":"Khronos glTF Blender I/O v3.6.27",
		"version":"2.0"
	},
	"scene":0,
	"scenes":[
		{
			"name":"Scene",
			"nodes":[
				2,
				6,
				12
			]
		}
	],
	"nodes":[
		{
			"name":"RootNode"
		},
		{
			"children":[
				0
			],
			"name":"f6cafd4bdfad496a906e81cb2a158247.fbx",
			"rotation":[
				0.70710688829422,
				0,
				0,
				0.7071066498756409
			],
			"translation":[
				-6.103515625e-05,
				0,
				0
			]
		},
		{
			"children":[
				1
			],
			"name":"Sketchfab_model",
			"rotation":[
				-0.70710688829422,
				0,
				0,
				0.7071066498756409
			],
			"translation":[
				-756.6730346679688,
				0,
				0
			]
		},
		{
			"name":"RootNode.001"
		},
		{
			"children":[
				3
			],
			"name":"Object_2"
		},
		{
			"children":[
				4
			],
			"name":"16339229ed4647e18e84ef222f30af17.fbx",
			"rotation":[
				0.70710688829422,
				0,
				0,
				0.7071066498756409
			]
		},
		{
			"children":[
				5
			],
			"name":"Sketchfab_model.001",
			"rotation":[
				-0.70710688829422,
				0,
				0,
				0.7071066498756409
			],
			"translation":[
				-17.776063919067383,
				0,
				23.96451187133789
			]
		},
		{
			"mesh":0,
			"name":"PolySphere_PolySphere_0",
			"translation":[
				0,
				-0.9828209280967712,
				-3.8601454434683546e-05
			]
		},
		{
			"children":[
				7
			],
			"name":"PolySphere",
			"scale":[
				100,
				100,
				100
			]
		},
		{
			"children":[
				8
			],
			"name":"Rock_formation_06_LP"
		},
		{
			"children":[
				9
			],
			"name":"RootNode.002"
		},
		{
			"children":[
				10
			],
			"name":"39e5889755c043ddb53d88eb37f14ce5.fbx",
			"rotation":[
				0.70710688829422,
				0,
				0,
				0.7071066498756409
			],
			"translation":[
				0,
				0,
				-7.62939453125e-06
			]
		},
		{
			"children":[
				11
			],
			"name":"Sketchfab_model.002",
			"rotation":[
				-0.70710688829422,
				0,
				0,
				0.7071066498756409
			],
			"translation":[
				0,
				98.2821273803711,
				0
			]
		}
	],
	"materials":[
		{
			"doubleSided":true,
			"name":"PolySphere",
			"normalTexture":{
				"index":0
			},
			"pbrMetallicRoughness":{
				"baseColorTexture":{
					"index":1
				},
				"metallicFactor":0
			}
		}
	],
	"meshes":[
		{
			"name":"PolySphere_PolySphere_0",
			"primitives":[
				{
					"attributes":{
						"POSITION":0,
						"NORMAL":1,
						"TEXCOORD_0":2,
						"TEXCOORD_1":3,
						"TEXCOORD_2":4,
						"TEXCOORD_3":5,
						"TEXCOORD_4":6,
						"TEXCOORD_5":7,
						"TEXCOORD_6":8,
						"TEXCOORD_7":9
					},
					"indices":10,
					"material":0
				}
			]
		}
	],
	"textures":[
		{
			"sampler":0,
			"source":0
		},
		{
			"sampler":0,
			"source":1
		}
	],
	"images":[
		{
			"mimeType":"image/png",
			"name":"PolySphere_normal",
			"uri":"textures/PolySphere_normal.png"
		},
		{
			"mimeType":"image/png",
			"name":"PolySphere_baseColor",
			"uri":"textures/PolySphere_baseColor.png"
		}
	],
	"accessors":[
		{
			"bufferView":0,
			"componentType":5126,
			"count":1452,
			"max":[
				0.8477039933204651,
				1.9862295389175415,
				0.9879741072654724
			],
			"min":[
				-1.061413288116455,
				0.03746134042739868,
				-0.6363041400909424
			],
			"type":"VEC3"
		},
		{
			"bufferView":1,
			"componentType":5126,
			"count":1452,
			"type":"VEC3"
		},
		{
			"bufferView":2,
			"componentType":5126,
			"count":1452,
			"type":"VEC2"
		},
		{
			"bufferView":3,
			"componentType":5126,
			"count":1452,
			"type":"VEC2"
		},
		{
			"bufferView":4,
			"componentType":5126,
			"count":1452,
			"type":"VEC2"
		},
		{
			"bufferView":5,
			"componentType":5126,
			"count":1452,
			"type":"VEC2"
		},
		{
			"bufferView":6,
			"componentType":5126,
			"count":1452,
			"type":"VEC2"
		},
		{
			"bufferView":7,
			"componentType":5126,
			"count":1452,
			"type":"VEC2"
		},
		{
			"bufferView":8,
			"componentType":5126,
			"count":1452,
			"type":"VEC2"
		},
		{
			"bufferView":9,
			"componentType":5126,
			"count":1452,
			"type":"VEC2"
		},
		{
			"bufferView":10,
			"componentType":5123,
			"count":5976,
			"type":"SCALAR"
		}
	],
	"bufferViews":[
		{
			"buffer":0,
			"byteLength":17424,
			"byteOffset":0,
			"target":34962
		},
		{
			"buffer":0,
			"byteLength":17424,
			"byteOffset":17424,
			"target":34962
		},
		{
			"buffer":0,
			"byteLength":11616,
			"byteOffset":34848,
			"target":34962
		},
		{
			"buffer":0,
			"byteLength":11616,
			"byteOffset":46464,
			"target":34962
		},
		{
			"buffer":0,
			"byteLength":11616,
			"byteOffset":58080,
			"target":34962
		},
		{
			"buffer":0,
			"byteLength":11616,
			"byteOffset":69696,
			"target":34962
		},
		{
			"buffer":0,
			"byteLength":11616,
			"byteOffset":81312,
			"target":34962
		},
		{
			"buffer":0,
			"byteLength":11616,
			"byteOffset":92928,
			"target":34962
		},
		{
			"buffer":0,
			"byteLength":11616,
			"byteOffset":104544,
			"target":34962
		},
		{
			"buffer":0,
			"byteLength":11616,
			"byteOffset":116160,
			"target":34962
		},
		{
			"buffer":0,
			"byteLength":11952,
			"byteOffset":127776,
			"target":34963
		}
	],
	"samplers":[
		{
			"magFilter":9729,
			"minFilter":9987
		}
	],
	"buffers":[
		{
			"byteLength":139728,
			"uri":"rock.bin"
		}
	]
}
